<svg width="105" height="26" viewBox="0 0 105 26" fill="none" xmlns="http://www.w3.org/2000/svg">
<path d="M92.8732 8.46016C93.4621 8.46016 93.9468 8.15399 94.0122 7.75843L94.5936 1.18339C94.5936 0.533512 93.8323 0 92.8751 0C91.9188 0 91.1582 0.533509 91.1582 1.18351L91.7392 7.75843C91.8031 8.15387 92.2878 8.46016 92.8752 8.46016H92.8732ZM89.3196 10.5138C89.615 10.0045 89.5927 9.43204 89.2814 9.17772L83.8771 5.38672C83.3152 5.06132 82.4727 5.453 81.9945 6.28224C81.5147 7.11042 81.5998 8.03539 82.1602 8.36091L88.1443 11.1472C88.5184 11.2858 89.0285 11.019 89.3215 10.51L89.3196 10.5138ZM96.4299 10.5103C96.7248 11.0193 97.2323 11.2863 97.6068 11.1475L103.591 8.36127C104.155 8.03586 104.235 7.11078 103.76 6.28259C103.279 5.45417 102.435 5.06167 101.875 5.38707L96.47 9.17807C96.1611 9.43204 96.1381 10.005 96.4318 10.5142L96.4299 10.5103ZM92.8732 16.6734C93.4621 16.6734 93.9468 16.977 94.0122 17.3729L94.5936 23.947C94.5936 24.5989 93.8323 25.1312 92.8751 25.1312C91.9188 25.1312 91.1582 24.5989 91.1582 23.947L91.7392 17.3729C91.8031 16.977 92.2878 16.6734 92.8752 16.6734H92.8732ZM96.4299 14.6192C96.7248 14.1088 97.2323 13.8442 97.6068 13.9845L103.591 16.7689C104.155 17.0946 104.235 18.0205 103.76 18.8494C103.279 19.6751 102.435 20.0687 101.875 19.7438L96.47 15.9563C96.1611 15.7003 96.1381 15.127 96.4318 14.6182H96.4295M89.3196 14.6185C89.615 15.127 89.5927 15.7003 89.2814 15.9568L83.8771 19.7441C83.3152 20.0691 82.4727 19.6755 81.9945 18.8498C81.5147 18.0209 81.5998 17.095 82.1602 16.7692L88.1443 13.9848C88.5184 13.8445 89.0285 14.1092 89.3215 14.6197H89.3196" fill="#FDBB30"/>
<path d="M58.7849 15.9445C58.7849 16.1462 58.767 16.3543 58.7117 16.5371C58.4825 17.2962 57.6966 17.9381 56.7133 17.9381C55.8935 17.9381 55.2423 17.4724 55.2423 16.4888C55.2423 14.9834 56.8992 14.5676 58.7854 14.5781L58.7849 15.9444V15.9445ZM61.7434 13.321C61.7434 10.8387 60.6827 8.65445 57.0988 8.65445C55.2591 8.65445 53.7989 9.17118 53.002 9.63173L53.5857 11.6274C54.314 11.1675 55.4749 10.7868 56.5735 10.7868C58.3914 10.7818 58.6891 11.8163 58.6891 12.4784V12.6351C54.7264 12.6293 52.2214 14.0014 52.2214 16.7966C52.2214 18.5046 53.4972 20.1043 55.715 20.1043C57.0778 20.1043 58.2192 19.5603 58.9023 18.6882H58.9697C58.9697 18.6882 59.4217 20.5817 61.9169 19.8572C61.7867 19.0698 61.7439 18.2291 61.7439 17.2183L61.7435 13.321M0 5.27391C0 5.27391 2.58955 15.8848 3.00305 17.6068C3.48542 19.6169 4.35478 20.3568 6.86009 19.8572L8.47693 13.2789C8.88692 11.6441 9.1613 10.4786 9.42547 8.81727H9.47146C9.65692 10.4962 9.92004 11.6492 10.2574 13.2843C10.2574 13.2843 10.9153 16.2709 11.2528 17.8391C11.5906 19.4068 12.5309 20.3954 14.9852 19.8572L18.838 5.27344H15.7282L14.4123 11.579C14.0585 13.4137 13.7378 14.8489 13.4903 16.527H13.4463C13.2214 14.8637 12.9351 13.487 12.5757 11.699L11.2068 5.27344H7.96606L6.5009 11.537C6.08622 13.4409 5.69735 14.9776 5.451 16.5999H5.40619C5.15328 15.0723 4.81661 13.1401 4.45226 11.2981C4.45226 11.2981 3.58243 6.81778 3.27649 5.27344L0 5.27391ZM24.7205 15.9445C24.7205 16.1462 24.7026 16.3543 24.6465 16.5371C24.4177 17.2962 23.6313 17.9381 22.648 17.9381C21.8281 17.9381 21.1778 17.4724 21.1778 16.4888C21.1778 14.9834 22.8343 14.5676 24.7209 14.5781L24.7205 15.9444V15.9445ZM27.6786 13.321C27.6786 10.8387 26.6179 8.65445 23.0347 8.65445C21.1945 8.65445 19.7332 9.17118 18.9367 9.63173L19.5197 11.6274C20.2479 11.1675 21.4088 10.7868 22.5077 10.7868C24.3269 10.7818 24.6247 11.8163 24.6247 12.4784V12.6351C20.6603 12.6293 18.1565 14.0014 18.1565 16.7966C18.1565 18.5046 19.4316 20.1043 21.6478 20.1043C23.0124 20.1043 24.1531 19.5603 24.837 18.6882H24.9036C24.9036 18.6882 25.3569 20.5817 27.8515 19.8572C27.7211 19.0698 27.6786 18.2291 27.6786 17.2183V13.321ZM32.6156 16.7615V5.27391H29.6536V19.8577H32.6156V16.7615ZM71.3639 5.27391V16.0321C71.3639 17.516 71.6436 18.5545 72.2401 19.1901C72.7629 19.7458 73.6217 20.1055 74.6516 20.1055C75.5277 20.1055 76.3889 19.9383 76.7954 19.7876L76.7571 17.4736C76.4547 17.5475 76.1075 17.6073 75.6322 17.6073C74.6229 17.6073 74.2854 16.9607 74.2854 15.6292V11.5129H76.8647V8.72213H74.2854V5.27391H71.3639ZM63.7185 8.90185V19.8577H66.774V14.2481C66.774 13.9449 66.7923 13.6807 66.8403 13.439C67.0663 12.2634 67.9649 11.5129 69.2556 11.5129C69.6094 11.5129 69.8627 11.5513 70.1371 11.5903V8.72213C69.9068 8.67627 69.7505 8.6548 69.4641 8.6548C68.3239 8.6548 67.0266 9.39055 66.4821 10.9688H66.3996V8.90185H63.7185ZM34.6896 8.90185V19.8577H37.6665V13.4332C37.6665 13.1317 37.7019 12.8129 37.8063 12.5365C38.053 11.8897 38.655 11.1321 39.6156 11.1321C40.8174 11.1321 41.3786 12.1476 41.3786 13.6132V19.8569H44.3532V13.3541C44.3532 13.0665 44.3925 12.7197 44.4775 12.4661C44.7218 11.7299 45.3702 11.1313 46.2634 11.1313C47.4812 11.1313 48.0657 12.129 48.0657 13.8541V19.8565H51.0422V13.4035C51.0422 10.0008 49.3143 8.65375 47.3635 8.65375C46.5004 8.65375 45.8183 8.86994 45.2015 9.24791C44.6836 9.56698 44.2191 10.0191 43.8138 10.6134H43.7698C43.2994 9.43266 42.1926 8.65433 40.7503 8.65433C38.8975 8.65433 38.0647 9.59361 37.5596 10.3901H37.5153V8.9015H34.6896" fill="#1A75CF"/>
</svg>
