<svg width="57" height="56" viewBox="0 0 57 56" fill="none" xmlns="http://www.w3.org/2000/svg">
<rect width="56.6202" height="55.7623" rx="10" fill="#F6F8FF"/>
<path d="M37.0573 17.7104H18.1715C17.5049 17.7104 17.0605 17.266 17.0605 16.5994C17.0605 15.9329 17.5049 15.4885 18.1715 15.4885H37.0573C37.7239 15.4885 38.1682 15.9329 38.1682 16.5994C38.1682 17.266 37.7239 17.7104 37.0573 17.7104Z" fill="#F2D4B7"/>
<path d="M43.4339 43.2774L40.343 40.2109C41.1157 39.1157 41.4469 37.9111 41.4469 36.5969C41.4469 32.9828 38.4664 30.0258 34.9339 30.0258C31.4014 30.0258 28.3105 32.9828 28.3105 36.5969C28.3105 40.2109 31.2911 43.1679 34.8235 43.1679C36.1482 43.1679 37.4729 42.7298 38.4664 42.0727L41.5573 45.1392C41.9988 45.5772 42.8819 45.5772 43.3235 45.1392C43.8754 44.5916 43.8754 43.7154 43.4339 43.2774Z" fill="#F2D4B7"/>
<path d="M26.1658 36.2761C26.1658 31.423 30.2369 27.4522 35.0995 27.4522C36.3434 27.4522 37.4743 27.6728 38.6051 28.114V19.7313C38.6051 19.0695 38.1528 18.6283 37.4743 18.6283H20.5116H18.2499C17.006 18.6283 15.9882 17.6356 15.9882 16.4223C15.9882 15.209 17.006 14.2163 18.2499 14.2163H37.4743C38.1528 14.2163 38.6051 13.7751 38.6051 13.1133C38.6051 12.4515 38.1528 12.0103 37.4743 12.0103H18.2499C15.7621 12.0103 13.7266 13.9957 13.7266 16.4223V38.4821C13.7266 40.9087 15.7621 42.8941 18.2499 42.8941H20.5116H29.3322C27.4098 41.2396 26.1658 38.9233 26.1658 36.2761Z" fill="#577CFF"/>
</svg>
