<svg width="57" height="56" viewBox="0 0 57 56" fill="none" xmlns="http://www.w3.org/2000/svg">
<rect width="56.6202" height="55.7623" rx="10" fill="#F6F8FF"/>
<path d="M35.6555 20.5083C37.4262 20.1151 39.7326 18.3576 40.0835 17.4921C40.2894 16.9854 39.2628 16.1937 38.9884 15.8744C38.3604 15.1461 38.6137 14.7872 38.8565 13.919C39.1335 12.9321 38.4765 11.8422 37.5449 11.4147C36.6134 10.9872 35.4998 11.1218 34.563 11.5388C33.6262 11.9557 32.8266 12.626 32.0429 13.2857C31.4703 12.9242 30.5572 11.3277 29.0795 12.3647C28.0582 13.0799 27.9659 14.6368 28.0978 15.8797C28.4065 18.7482 29.1138 20.2365 30.4464 20.6376C32.13 21.1442 33.993 20.8777 35.6555 20.5083Z" fill="#577CFF"/>
<path d="M38.5327 12.257C38.3084 16.1229 34.5375 18.6879 32.7483 19.8173L33.9094 20.8148C33.9094 20.8148 34.6457 20.8307 35.6537 20.5087C37.3822 19.9598 39.9076 18.4082 40.0817 17.4925C40.3377 16.1599 38.9708 16.4501 38.662 15.3972C38.5011 14.8404 39.4458 13.7875 38.5327 12.257ZM32.0464 13.2888C32.0464 13.2888 31.3735 12.6 30.8747 12.286C30.6267 12.7531 30.4499 13.2597 30.3628 13.7822C30.2071 14.7006 30.3628 16.0042 30.7296 16.9753C30.7876 17.1257 31.004 17.1019 31.0278 16.9436C31.3444 14.8563 32.0464 13.2888 32.0464 13.2888Z" fill="#1064E2"/>
<path d="M27.3433 20.1684C27.3433 20.1684 19.1127 21.0577 15.3998 28.2038C11.6869 35.3498 14.843 39.6828 18.1838 41.2609C21.5246 42.8389 29.9426 43.3957 35.4183 42.0974C40.8939 40.7991 42.2635 38.1074 42.0075 35.5082C41.6354 31.7135 38.1099 29.3807 38.1099 29.3807C38.1099 29.3807 38.2498 24.6941 34.6134 21.6515C31.3861 18.9493 27.3433 20.1684 27.3433 20.1684Z" fill="#577CFF"/>
<path d="M30.7219 32.193C28.9565 29.9658 26.8718 29.6676 26.2042 28.868C25.84 28.4326 25.6263 27.9919 25.7081 27.4457C25.7952 26.8651 26.4681 26.464 26.9906 26.3664C27.6001 26.2503 29.0542 26.311 30.276 27.4747C30.5662 27.7491 30.4607 28.1766 30.4528 28.5593C30.4316 29.38 31.6059 30.1769 32.5559 29.4908C33.5086 28.802 32.7776 27.2689 32.1627 26.5247C31.6983 25.9626 30.0147 24.725 27.9221 24.5297C27.3336 24.4743 24.9666 24.1233 23.5996 26.7226C23.2064 27.4694 23.0613 29.2744 25.1196 30.7997C25.5497 31.119 27.7822 32.2537 28.4024 32.9899C29.4764 34.2645 28.7401 35.386 27.901 35.5338C25.6131 35.9349 24.3174 34.6973 24.0773 34.0191C23.9057 33.5362 24.0852 33.0137 23.8635 32.5598C23.6366 32.0927 23.1721 31.908 22.6813 32.0637C21.0716 32.5756 21.5835 34.3358 22.296 35.3042C23.0587 36.3413 23.9954 36.9667 25.0484 37.3098C28.9776 38.5896 30.8671 36.5682 31.1969 35.0878C31.4397 34.0033 31.4133 33.0638 30.7219 32.193Z" fill="white"/>
<path d="M29.7693 23.0266C26.4259 30.1673 25.8506 39.1844 25.8506 39.1844" stroke="white" stroke-width="2.25" stroke-miterlimit="10"/>
<path d="M32.5454 18.5313C34.7726 19.257 35.2661 21.2705 35.1051 21.8193C34.9125 22.4632 32.4451 19.9563 28.7771 20.1067C27.4946 20.1595 27.8667 19.3731 28.4604 18.9192C29.2442 18.3202 30.561 17.8874 32.5454 18.5313Z" fill="#6D4C41"/>
<path d="M32.5454 18.5313C34.7726 19.257 35.2661 21.2705 35.1051 21.8193C34.9125 22.4632 32.4451 19.9563 28.7771 20.1067C27.4946 20.1595 27.8667 19.3731 28.4604 18.9192C29.2442 18.3202 30.561 17.8874 32.5454 18.5313Z" fill="#F7DECE"/>
<path d="M36.4551 25.6299C36.7348 25.4372 37.6742 25.7697 37.9381 27.609C38.0674 28.5089 38.107 29.3797 38.107 29.3797C38.107 29.3797 36.9987 28.3849 36.6319 27.6856C36.1701 26.8015 35.9906 25.9466 36.4551 25.6299Z" fill="#1064E2"/>
</svg>
