<svg width="20" height="17" viewBox="0 0 20 17" fill="none" xmlns="http://www.w3.org/2000/svg">
<path d="M10.5 3.31625C9.47324 1.95803 7.89046 0.599819 3.96778 0.500147C3.71012 0.493609 3.5 0.711121 3.5 0.978989C3.5 2.9661 3.5 10.489 3.5 12.7139C3.5 12.9818 3.71014 13.1922 3.96773 13.2009C7.89045 13.3342 9.47324 15.1417 10.5 16.5M10.5 3.31625C11.5268 1.95803 13.1095 0.599819 17.0322 0.500147C17.2899 0.493609 17.5 0.706232 17.5 0.974099C17.5 3.19536 17.5 10.4919 17.5 12.7132C17.5 12.9811 17.2899 13.1922 17.0323 13.2009C13.1096 13.3342 11.5268 15.1417 10.5 16.5M10.5 3.31625V16.5" stroke="#6C6C6C" stroke-linejoin="round"/>
<path d="M16.8735 2.5H19.025C19.2873 2.5 19.5 2.70894 19.5 2.96667V15.1364C19.5 15.514 19.0471 15.7649 18.6958 15.6116C17.9405 15.2818 16.6799 14.879 15.0294 14.879C12.2353 14.879 10 16.5 10 16.5C10 16.5 7.76471 14.879 4.97059 14.879C3.32003 14.879 2.05948 15.2818 1.30415 15.6116C0.952846 15.7649 0.5 15.514 0.5 15.1364V2.96667C0.5 2.70894 0.712667 2.5 0.975 2.5H3.12647" stroke="#6C6C6C" stroke-linejoin="round"/>
</svg>
