<svg width="57" height="57" viewBox="0 0 57 57" fill="none" xmlns="http://www.w3.org/2000/svg">
<rect width="56.6202" height="56.6202" rx="10" fill="#F6F8FF"/>
<path d="M34.2305 35.8685V31.2095H21.9209V35.8685L28.0757 41.1931L34.2305 35.8685Z" fill="#E6AF78" fill-opacity="0.56"/>
<path d="M43.7463 38.0482L35.284 36.1104C35.1561 36.0811 35.0386 36.0314 34.9286 35.9712L28.0746 39.8624L21.4879 35.783C21.3173 35.9392 21.1057 36.0553 20.8653 36.1104L12.4029 38.0483C11.1672 38.3313 10.2939 39.4044 10.2939 40.6398V45.8526C10.2939 46.5878 10.9063 47.1837 11.6617 47.1837H44.4874C45.2428 47.1837 45.8551 46.5878 45.8551 45.8526V40.6398C45.8552 39.4043 44.982 38.3311 43.7463 38.0482Z" fill="#577CFF"/>
<path d="M21.9209 31.2096V36.1252C29.6743 38.844 34.2305 32.0396 34.2305 32.0396V31.2095H21.9209V31.2096Z" fill="#D29B6E" fill-opacity="0.34"/>
<path d="M19.1865 15.9026L19.7825 28.6625C19.8381 29.8545 20.4387 30.96 21.4195 31.6759L24.2471 33.7399C24.9574 34.2583 25.8212 34.5386 26.7091 34.5386H29.4446C30.3324 34.5386 31.1962 34.2584 31.9065 33.7399L34.7342 31.6759C35.715 30.9599 36.3155 29.8546 36.3712 28.6625L36.9671 15.9026H19.1865Z" fill="#F7DECE"/>
<path d="M26.0253 18.5649C28.7608 18.5649 32.8639 17.8993 33.8372 15.9026H19.1865L19.7825 28.6625C19.8381 29.8545 20.4387 30.9599 21.4195 31.6759L24.2472 33.7399C24.9575 34.2583 25.8213 34.5386 26.7091 34.5386H28.0768C26.7091 34.5386 23.9736 31.8763 23.9736 28.5485C23.9736 26.9209 23.9736 22.5584 23.9736 20.5616C23.9736 19.896 24.6575 18.5649 26.0253 18.5649Z" fill="#F2D4B7"/>
<path d="M15.3154 42.8628L10.884 38.9886C10.5126 39.4462 10.2949 40.022 10.2949 40.6385V45.8513C10.2949 46.5865 10.9073 47.1824 11.6626 47.1824H16.4497V45.3385C16.4497 44.394 16.0373 43.4939 15.3154 42.8628Z" fill="#7F9BFF"/>
<path d="M40.8355 42.8628L45.267 38.9886C45.6383 39.4462 45.856 40.022 45.856 40.6385V45.8513C45.856 46.5865 45.2436 47.1824 44.4883 47.1824H39.7012V45.3385C39.7012 44.394 40.1136 43.4939 40.8355 42.8628Z" fill="#7F9BFF"/>
<path d="M21.8217 34.3877L28.0726 39.863C28.0726 39.863 26.322 40.7231 24.1617 42.4566C23.7161 42.8141 23.042 42.6693 22.803 42.1576L19.8662 35.8696L20.7953 34.5133C21.0265 34.1755 21.5117 34.1163 21.8217 34.3877Z" fill="#7F9BFF"/>
<path d="M34.3241 34.3877L28.0732 39.863C28.0732 39.863 29.8238 40.7231 31.9841 42.4566C32.4297 42.8141 33.1038 42.6693 33.3428 42.1576L36.2796 35.8696L35.3506 34.5133C35.1193 34.1755 34.634 34.1163 34.3241 34.3877Z" fill="#7F9BFF"/>
<path d="M32.2188 11.493L32.8598 15.9024C35.7864 16.4721 36.2082 20.942 36.2689 22.2187C36.2799 22.4504 36.3559 22.6741 36.4851 22.869L37.6017 24.5548C37.6017 24.5548 37.2195 21.7677 38.9694 19.8958C38.9694 19.8958 39.5704 8.83066 32.2188 11.493Z" fill="#404040"/>
<path d="M19.8407 10.3002L20.8522 10.9727C16.2788 14.2589 17.1336 19.8955 17.1336 19.8955C18.5013 21.2266 18.5013 24.5545 18.5013 24.5545L19.869 23.2234C19.869 23.2234 19.3412 19.3781 21.9206 17.8988C24.3142 16.5261 26.4085 17.2333 28.5456 17.2333C34.273 17.2333 35.8758 15.1325 35.598 12.5742C35.4542 11.2505 33.3747 8.49309 28.0755 8.58079C25.9369 8.61615 21.9208 9.24635 19.8407 10.3002Z" fill="#242424"/>
</svg>
